name C:\Users\u0150099\Documents\master_thesis\3dpredictsim\Results\CP\CP3_T0_scaled_MRI_v7_scaledMT_right_MTPp_k25_d03_ig21_v3.mot
datacolumns 126
datarows 4
range 0.00000000 0.03208218
endheader
time	pelvis_tilt	pelvis_list	pelvis_rotation	pelvis_tx	pelvis_ty	pelvis_tz	hip_flexion_l	hip_adduction_l	hip_rotation_l	hip_flexion_r	hip_adduction_r	hip_rotation_r	knee_angle_l	knee_angle_r	ankle_angle_l	ankle_angle_r	subtalar_angle_l	subtalar_angle_r	mtj_angle_l	mtj_angle_r	mtp_angle_l	mtp_angle_r	lumbar_extension	lumbar_bending	lumbar_rotation	arm_flex_l	arm_add_l	arm_rot_l	arm_flex_r	arm_add_r	arm_rot_r	elbow_flex_l	elbow_flex_r	glut_med1_l/activation	glut_med2_l/activation	glut_med3_l/activation	glut_min1_l/activation	glut_min2_l/activation	glut_min3_l/activation	semimem_l/activation	semiten_l/activation	bifemlh_l/activation	bifemsh_l/activation	sar_l/activation	add_long_l/activation	add_brev_l/activation	add_mag1_l/activation	add_mag2_l/activation	add_mag3_l/activation	tfl_l/activation	pect_l/activation	grac_l/activation	glut_max1_l/activation	glut_max2_l/activation	glut_max3_l/activation	iliacus_l/activation	psoas_l/activation	quad_fem_l/activation	gem_l/activation	peri_l/activation	rect_fem_l/activation	vas_med_l/activation	vas_int_l/activation	vas_lat_l/activation	med_gas_l/activation	lat_gas_l/activation	soleus_l/activation	tib_post_l/activation	flex_dig_l/activation	flex_hal_l/activation	tib_ant_l/activation	per_brev_l/activation	per_long_l/activation	per_tert_l/activation	ext_dig_l/activation	ext_hal_l/activation	ercspn_l/activation	intobl_l/activation	extobl_l/activation	glut_med1_r/activation	glut_med2_r/activation	glut_med3_r/activation	glut_min1_r/activation	glut_min2_r/activation	glut_min3_r/activation	semimem_r/activation	semiten_r/activation	bifemlh_r/activation	bifemsh_r/activation	sar_r/activation	add_long_r/activation	add_brev_r/activation	add_mag1_r/activation	add_mag2_r/activation	add_mag3_r/activation	tfl_r/activation	pect_r/activation	grac_r/activation	glut_max1_r/activation	glut_max2_r/activation	glut_max3_r/activation	iliacus_r/activation	psoas_r/activation	quad_fem_r/activation	gem_r/activation	peri_r/activation	rect_fem_r/activation	vas_med_r/activation	vas_int_r/activation	vas_lat_r/activation	med_gas_r/activation	lat_gas_r/activation	soleus_r/activation	tib_post_r/activation	flex_dig_r/activation	flex_hal_r/activation	tib_ant_r/activation	per_brev_r/activation	per_long_r/activation	per_tert_r/activation	ext_dig_r/activation	ext_hal_r/activation	ercspn_r/activation	intobl_r/activation	extobl_r/activation	
          0.00000000	         -2.88625503	         -1.00664963	          7.96136177	          0.00000000	          0.83464646	         -0.00259929	         -8.29228030	         -5.28595990	         -9.95812216	         29.49223191	         -1.25964321	         -6.17916547	        -32.88478270	        -12.50207609	          1.53143753	         15.00436288	         11.63836760	          3.10996348	         22.18447362	          0.31548473	         -9.54440472	         -1.63802936	         -1.21148244	         15.48148397	        -13.48426048	         18.86218223	        -16.48901308	        -16.27759841	         17.95659067	         50.63888137	         35.44120600	         86.51662706	         86.51662706	          0.14243049	          0.05000035	          0.05000024	          0.29149162	          0.05000076	          0.05000098	          0.05000430	          0.05000075	          0.05000047	          0.05891292	          0.08280591	          0.15751003	          0.08453859	          0.05351171	          0.05002695	          0.05000073	          0.51869420	          0.06941247	          0.06939805	          0.05000326	          0.05000143	          0.05000053	          0.66040645	          0.16626926	          0.05000111	          0.05000167	          0.06659454	          0.24647076	          0.10479489	          0.11689040	          0.12104350	          0.36864691	          0.44667671	          0.19619735	          0.37448415	          0.20047271	          0.25246134	          0.05000006	          0.05891240	          0.08560766	          0.05000067	          0.05000016	          0.05000046	          0.05000011	          0.05000012	          0.05000019	          0.20757948	          0.05891158	          0.05000035	          0.05892398	          0.05891099	          0.05000056	          0.25633437	          0.15634764	          0.18517127	          0.13388447	          0.08178227	          0.07528860	          0.05000223	          0.05000396	          0.05000234	          0.29924795	          0.07007052	          0.05001587	          0.11350880	          0.05000092	          0.05000020	          0.17194642	          0.08178332	          0.08178318	          0.05000017	          0.05000064	          0.05000107	          0.06941221	          0.05000118	          0.05000148	          0.05000180	          0.05000206	          0.05000111	          0.05000009	          0.06273108	          0.05881350	          0.05943092	          0.48156723	          0.12672665	          0.11364113	          0.13510166	          0.64594652	          0.22899880	          0.05333596	          0.17412766	          0.16442716	
          0.01069406	         -2.89198010	         -0.59051638	          8.10654997	          0.01714150	          0.83307508	         -0.00270035	         -9.02682608	         -5.28060102	        -10.33040065	         29.08058818	         -1.56310761	         -5.82629256	        -33.43605259	        -13.79312528	          0.51479436	         14.39053191	         11.87608323	          2.98596947	         19.96044990	          0.30513014	         -9.47396321	         -1.30801712	         -1.18985489	         15.25741269	        -13.46206696	         18.59367537	        -17.04444140	        -16.06797465	         18.43902536	         51.43002909	         34.33062638	         86.51662706	         86.51662706	          0.12088491	          0.05000339	          0.05000137	          0.24740441	          0.05001305	          0.05000283	          0.05000364	          0.05000107	          0.05000067	          0.05000139	          0.07027995	          0.26063895	          0.07175036	          0.05000376	          0.05000600	          0.05000584	          0.46855237	          0.05891275	          0.05890074	          0.05003004	          0.05001800	          0.05000589	          0.58544159	          0.14615642	          0.05450302	          0.05000148	          0.06628365	          0.20918657	          0.10640401	          0.10292174	          0.10273441	          0.31288092	          0.37910706	          0.16651812	          0.31783519	          0.17014720	          0.21427129	          0.05118750	          0.05000114	          0.07267428	          0.05000085	          0.10799057	          0.05000445	          0.07921057	          0.05891172	          0.08178441	          0.32796166	          0.05000030	          0.21758497	          0.05001068	          0.05000059	          0.33860773	          0.25394812	          0.15585280	          0.18388249	          0.11363156	          0.06941129	          0.06941561	          0.08178143	          0.06941310	          0.12543559	          0.30969440	          0.05947162	          0.05941482	          0.09633880	          0.05000041	          0.05000080	          0.24849869	          0.06941196	          0.06941180	          0.08178388	          0.06940234	          0.08179116	          0.05891224	          0.05891298	          0.05635613	          0.05012835	          0.05891150	          0.05891210	          0.05891161	          0.05891185	          0.05891171	          0.05891112	          0.40871949	          0.10755682	          0.09645051	          0.11466466	          0.70947963	          0.39975313	          0.05775302	          0.18085108	          0.13955389	
          0.02138812	         -2.89748668	         -0.16614629	          8.19803258	          0.03434237	          0.83145602	         -0.00280895	         -9.64486691	         -5.27649121	        -10.67468101	         28.60527694	         -1.87507470	         -5.47824863	        -34.16869487	        -15.20068912	         -0.48920203	         13.75731432	         12.05571048	          2.84225863	         17.27294639	          0.28791086	         -9.41370274	         -0.95651594	         -1.16540544	         15.00756752	        -13.45111365	         18.35508989	        -17.46915367	        -15.79645958	         18.83421114	         52.04310865	         32.99320495	         86.51662706	         86.51662706	          0.10259863	          0.05000034	          0.05000013	          0.44811274	          0.05000130	          0.05000046	          0.05000596	          0.05000057	          0.05000021	          0.05000098	          0.05964878	          0.23207477	          0.06089664	          0.05000026	          0.05000082	          0.05000130	          0.43540953	          0.05000131	          0.05000062	          0.05001564	          0.05000121	          0.05000036	          0.61958881	          0.18705956	          0.05000009	          0.05000049	          0.05641405	          0.17754244	          0.09030817	          0.08735266	          0.08719363	          0.26555078	          0.32175887	          0.14132854	          0.26975563	          0.14440913	          0.18185834	          0.09012361	          0.08937689	          0.06642631	          0.05003933	          0.20199706	          0.05005627	          0.14575050	          0.05000003	          0.06941274	          0.42450980	          0.31632649	          0.25341033	          0.42146618	          0.43438698	          0.28738641	          0.21553303	          0.16762290	          0.15606636	          0.09644237	          0.05891146	          0.05891500	          0.06941020	          0.05891354	          0.11818133	          0.36428566	          0.05047665	          0.05042801	          0.08176555	          0.31167288	          0.24425349	          0.29181359	          0.05891188	          0.05891176	          0.06941268	          0.05891193	          0.06941863	          0.05000058	          0.05000247	          0.05000144	          0.05000122	          0.05000019	          0.05000057	          0.05000006	          0.05000019	          0.05000095	          0.05000072	          0.65481454	          0.20815765	          0.12197077	          0.48314658	          0.77052491	          0.33928220	          0.07665608	          0.15749599	          0.11844325	
          0.03208218	         -2.90390759	          0.25308778	          8.22189736	          0.05135212	          0.83006170	         -0.00290346	        -10.11022217	         -5.28340713	        -10.98506111	         28.22103053	         -2.18361212	         -5.17643753	        -35.07627936	        -16.72513508	         -1.52548107	         13.06354343	         12.18271591	          2.70161949	         14.07958488	          0.27037483	         -9.37911111	         -0.58102387	         -1.13875552	         14.78584652	        -13.45071541	         18.19993434	        -17.71096813	        -15.47482429	         19.14861212	         52.39254948	         31.44797387	         86.51662706	         86.51662706	          0.08707853	          0.05000123	          0.05000066	          0.38032607	          0.05000688	          0.05000253	          0.05000752	          0.08775258	          0.05000623	          0.05000027	          0.05062587	          0.19712660	          0.05168863	          0.05000403	          0.12756630	          0.10174547	          0.36954606	          0.05000352	          0.05000143	          0.05011917	          0.05003784	          0.05001525	          0.52586239	          0.21034050	          0.05000055	          0.05000199	          0.05001392	          0.15068518	          0.07664709	          0.07413866	          0.07400368	          0.22538054	          0.27308619	          0.11994945	          0.22894922	          0.12256463	          0.15434867	          0.16002754	          0.08617745	          0.06631850	          0.05000163	          0.27668732	          0.05000194	          0.20432145	          0.05002498	          0.05891259	          0.48747788	          0.41558549	          0.27793067	          0.66225531	          0.58777572	          0.24391790	          0.20134193	          0.19134385	          0.14800245	          0.08185344	          0.05000084	          0.05000293	          0.05891047	          0.05000392	          0.12749263	          0.40265127	          0.05000166	          0.05000312	          0.06939694	          0.39143012	          0.31345593	          0.33249550	          0.05000026	          0.05000020	          0.05891257	          0.05000138	          0.05891786	          0.05000015	          0.09236884	          0.11832712	          0.16030640	          0.05000013	          0.05000034	          0.05000005	          0.05000569	          0.05000201	          0.05000191	          0.78340589	          0.20831154	          0.11884398	          0.57849996	          0.83025782	          0.44327019	          0.09180044	          0.13367122	          0.10052611	
